# Blender v2.82 (sub 7) OBJ File: 'helmet_aquamarine.blend'
# www.blender.org
mtllib helmet_aquamarine.mtl
o Cube.323_Cube.046
v 0.445556 1.588305 0.339667
v 0.445556 1.955316 0.706678
v 0.812568 1.955316 0.706678
v -0.655477 1.221294 -0.761367
v -0.655477 1.588305 -0.761367
v -0.288466 1.588305 -0.761367
v -0.288466 1.221294 -0.394356
v -0.655477 1.221294 -0.394355
v -0.655477 1.588305 -0.394355
v -0.655477 1.588305 -0.027344
v -0.288466 1.588305 -0.027344
v -0.655477 1.588305 0.339667
v -0.288466 1.588305 0.339667
v -0.655477 1.221294 0.706678
v -0.655477 1.588305 0.706678
v -0.288466 1.955316 0.339667
v 0.078545 1.588305 0.339667
v 0.078545 1.955316 0.339667
v -0.288466 1.955316 0.706678
v 0.078545 1.955316 0.706678
v 0.078545 1.955316 -0.027344
v -0.288466 1.955316 -0.027344
v 0.078545 1.588305 -0.027344
v -0.288466 1.955316 -0.761367
v 0.078545 1.955316 -0.761367
v -0.288466 1.588305 -0.394356
v -0.288466 1.955316 -0.394356
v 0.078545 1.955316 -0.394356
v 0.078545 1.588305 -0.394356
v 0.445556 1.588305 -0.394356
v 0.445556 1.955316 -0.394356
v 0.445556 1.588305 -0.027344
v 0.445556 1.955316 -0.027344
v 0.445556 1.955316 0.339667
v 0.812568 1.955316 0.339667
v 0.812567 1.955316 -0.394356
v 0.445556 1.955316 -0.761367
v 0.812567 1.955316 -0.761367
v 1.179579 1.955316 -0.761367
v 0.812567 1.588305 -0.394356
v 1.179579 1.955316 -0.394356
v 1.179579 1.588305 -0.394356
v 1.179579 1.588305 -0.027344
v 1.179579 1.955316 -0.027344
v 0.812568 1.588305 -0.027344
v 0.812568 1.955316 -0.027344
v 0.812568 1.588305 0.339667
v 1.179579 1.588305 0.339667
v 1.179579 1.955316 0.339667
v 1.179579 1.588305 0.706678
v 1.179579 1.955316 0.706678
v 1.179579 1.221294 0.706678
v 0.812568 1.588305 1.073689
v 1.179579 1.221294 1.073689
v 1.179579 1.588305 1.073689
v 0.812568 1.221294 0.706678
v 0.812568 1.588305 0.706678
v 0.445556 1.221294 1.073689
v 0.445556 1.588305 1.073689
v 0.812568 1.221294 1.073689
v 0.078545 1.221294 0.706678
v 0.078545 1.588305 0.706678
v 0.445556 1.221294 0.706678
v 0.445556 1.588305 0.706678
v 0.078545 1.588305 1.073689
v -0.288466 1.221294 0.706678
v -0.288466 1.588305 0.706678
v -0.288466 1.221294 1.073689
v -0.288466 1.588305 1.073689
v 0.078545 1.221294 1.073689
v 0.812567 1.221294 -1.128378
v 1.179579 1.221294 -1.128378
v 1.179579 1.588305 -1.128378
v 1.179579 1.221294 -0.761367
v 1.179579 1.588305 -0.761367
v 0.812567 1.588305 -1.128378
v 0.445556 1.221294 -0.761367
v 0.445556 1.588305 -0.761367
v 0.812567 1.221294 -0.761367
v 0.812567 1.588305 -0.761367
v 0.078545 1.221294 -1.128378
v 0.445556 1.221294 -1.128378
v 0.445556 1.588305 -1.128378
v 0.078545 1.588305 -0.761367
v -0.288466 1.221294 -1.128378
v -0.288466 1.588305 -1.128378
v 0.078545 1.588305 -1.128378
v -0.288466 1.221294 -0.761367
v 0.078545 1.221294 -0.761367
v 0.812567 0.487271 -1.128378
v 0.812567 0.854283 -1.128378
v 1.179579 0.487271 -1.128378
v 1.179579 0.854283 -1.128378
v 0.812567 0.854283 -0.761367
v 1.179579 0.854283 -0.761367
v 0.812567 0.120260 -1.128378
v 1.179579 0.120260 -1.128378
v 0.812567 0.120260 -0.761367
v 0.812567 0.487271 -0.761367
v 1.179579 0.120260 -0.761367
v 1.179579 0.487271 -0.761367
v 1.179579 0.120260 -0.027344
v 0.812568 0.487271 0.339667
v 1.179579 0.120260 0.339667
v 0.812567 0.120260 -0.394356
v 0.812567 0.487271 -0.394356
v 1.179579 0.120260 -0.394356
v 1.179579 0.487271 -0.394356
v 0.812568 0.120260 -0.027344
v 0.812568 0.487271 -0.027344
v 1.179579 0.487271 -0.027344
v 1.179579 0.120260 0.706678
v 0.812568 0.120260 1.073689
v 1.179579 0.120260 1.073689
v 1.179579 0.487271 0.706678
v 0.812568 0.487271 1.073689
v 1.179579 0.487271 1.073689
v 1.179579 0.854283 1.073689
v 0.812568 0.854283 0.706678
v 1.179579 0.854283 0.706678
v 0.812568 0.854283 1.073689
v 0.812568 0.120260 0.339667
v 1.179579 0.487271 0.339667
v 0.812568 0.120260 0.706678
v 0.812568 0.487271 0.706678
v -0.655477 0.854283 -0.394355
v -0.288466 0.854283 -0.394356
v -0.655477 0.854283 -0.027344
v -0.288466 0.854283 -0.027344
v -0.655477 1.221294 -0.027344
v -0.288466 1.221294 -0.027344
v -0.655477 0.854283 0.339667
v -0.655477 1.221294 0.339667
v -0.288466 0.854283 0.339667
v -0.288466 1.221294 0.339667
vt 0.375000 0.500000
vt 0.625000 0.500000
vt 0.625000 0.750000
vt 0.375000 0.750000
vt 0.125000 0.500000
vt 0.125000 0.750000
vt 0.875000 0.500000
vt 0.875000 0.750000
vt 0.375000 0.000000
vt 0.625000 0.000000
vt 0.625000 0.250000
vt 0.375000 0.250000
vt 0.625000 0.500000
vt 0.375000 0.500000
vt 0.375000 0.750000
vt 0.625000 0.750000
vt 0.625000 1.000000
vt 0.375000 1.000000
vt 0.125000 0.500000
vt 0.125000 0.750000
vt 0.875000 0.500000
vt 0.875000 0.750000
vt 0.375000 0.250000
vt 0.625000 0.250000
vt 0.625000 0.500000
vt 0.375000 0.500000
vt 0.375000 0.750000
vt 0.625000 0.750000
vt 0.625000 1.000000
vt 0.375000 1.000000
vt 0.875000 0.500000
vt 0.875000 0.750000
vt 0.375000 0.250000
vt 0.625000 0.250000
vt 0.625000 0.500000
vt 0.375000 0.500000
vt 0.375000 0.750000
vt 0.625000 0.750000
vt 0.625000 1.000000
vt 0.375000 1.000000
vt 0.875000 0.500000
vt 0.875000 0.750000
vt 0.375000 0.250000
vt 0.625000 0.250000
vt 0.625000 0.500000
vt 0.375000 0.500000
vt 0.625000 0.750000
vt 0.375000 0.750000
vt 0.625000 1.000000
vt 0.375000 1.000000
vt 0.125000 0.500000
vt 0.125000 0.750000
vt 0.875000 0.500000
vt 0.875000 0.750000
vt 0.375000 0.500000
vt 0.625000 0.500000
vt 0.625000 0.750000
vt 0.375000 0.750000
vt 0.625000 1.000000
vt 0.375000 1.000000
vt 0.125000 0.500000
vt 0.125000 0.750000
vt 0.875000 0.500000
vt 0.875000 0.750000
vt 0.375000 0.750000
vt 0.625000 0.750000
vt 0.625000 1.000000
vt 0.375000 1.000000
vt 0.125000 0.500000
vt 0.375000 0.500000
vt 0.125000 0.750000
vt 0.625000 0.500000
vt 0.875000 0.500000
vt 0.875000 0.750000
vt 0.375000 0.750000
vt 0.625000 0.750000
vt 0.625000 1.000000
vt 0.375000 1.000000
vt 0.125000 0.500000
vt 0.375000 0.500000
vt 0.125000 0.750000
vt 0.625000 0.500000
vt 0.875000 0.500000
vt 0.875000 0.750000
vt 0.375000 0.000000
vt 0.625000 0.000000
vt 0.625000 0.250000
vt 0.375000 0.250000
vt 0.375000 0.750000
vt 0.625000 0.750000
vt 0.625000 1.000000
vt 0.375000 1.000000
vt 0.125000 0.500000
vt 0.375000 0.500000
vt 0.125000 0.750000
vt 0.625000 0.500000
vt 0.875000 0.500000
vt 0.875000 0.750000
vt 0.375000 0.000000
vt 0.625000 0.000000
vt 0.625000 0.250000
vt 0.375000 0.250000
vt 0.125000 0.500000
vt 0.375000 0.500000
vt 0.375000 0.750000
vt 0.125000 0.750000
vt 0.625000 0.500000
vt 0.875000 0.500000
vt 0.875000 0.750000
vt 0.625000 0.750000
vt 0.125000 0.500000
vt 0.375000 0.500000
vt 0.375000 0.750000
vt 0.125000 0.750000
vt 0.625000 0.500000
vt 0.875000 0.500000
vt 0.875000 0.750000
vt 0.625000 0.750000
vt 0.125000 0.500000
vt 0.375000 0.500000
vt 0.375000 0.750000
vt 0.125000 0.750000
vt 0.625000 0.500000
vt 0.875000 0.500000
vt 0.875000 0.750000
vt 0.625000 0.750000
vt 0.375000 0.500000
vt 0.625000 0.500000
vt 0.625000 0.750000
vt 0.375000 0.750000
vt 0.125000 0.500000
vt 0.125000 0.750000
vt 0.875000 0.500000
vt 0.875000 0.750000
vt 0.125000 0.500000
vt 0.375000 0.500000
vt 0.375000 0.750000
vt 0.125000 0.750000
vt 0.625000 0.500000
vt 0.875000 0.500000
vt 0.875000 0.750000
vt 0.625000 0.750000
vt 0.125000 0.500000
vt 0.375000 0.500000
vt 0.375000 0.750000
vt 0.125000 0.750000
vt 0.625000 0.500000
vt 0.875000 0.500000
vt 0.875000 0.750000
vt 0.625000 0.750000
vt 0.375000 0.000000
vt 0.625000 0.000000
vt 0.625000 0.250000
vt 0.375000 0.250000
vt 0.125000 0.500000
vt 0.375000 0.500000
vt 0.375000 0.750000
vt 0.125000 0.750000
vt 0.625000 0.500000
vt 0.875000 0.500000
vt 0.875000 0.750000
vt 0.625000 0.750000
vt 0.375000 0.000000
vt 0.625000 0.000000
vt 0.625000 0.250000
vt 0.375000 0.250000
vt 0.625000 0.500000
vt 0.375000 0.500000
vt 0.125000 0.500000
vt 0.375000 0.750000
vt 0.125000 0.750000
vt 0.875000 0.500000
vt 0.875000 0.750000
vt 0.625000 0.750000
vt 0.375000 0.250000
vt 0.625000 0.250000
vt 0.625000 0.500000
vt 0.375000 0.500000
vt 0.125000 0.500000
vt 0.375000 0.750000
vt 0.125000 0.750000
vt 0.875000 0.500000
vt 0.875000 0.750000
vt 0.625000 0.750000
vt 0.375000 0.250000
vt 0.625000 0.250000
vt 0.625000 0.500000
vt 0.375000 0.500000
vt 0.125000 0.500000
vt 0.375000 0.750000
vt 0.125000 0.750000
vt 0.875000 0.500000
vt 0.875000 0.750000
vt 0.625000 0.750000
vt 0.375000 0.250000
vt 0.625000 0.250000
vt 0.625000 0.500000
vt 0.375000 0.500000
vt 0.625000 0.750000
vt 0.375000 0.750000
vt 0.125000 0.500000
vt 0.125000 0.750000
vt 0.875000 0.500000
vt 0.875000 0.750000
vt 0.375000 0.000000
vt 0.625000 0.000000
vt 0.625000 0.250000
vt 0.375000 0.250000
vt 0.625000 0.500000
vt 0.375000 0.500000
vt 0.625000 0.750000
vt 0.375000 0.750000
vt 0.625000 1.000000
vt 0.375000 1.000000
vt 0.875000 0.500000
vt 0.875000 0.750000
vt 0.375000 0.000000
vt 0.625000 0.000000
vt 0.625000 0.250000
vt 0.375000 0.250000
vt 0.375000 0.500000
vt 0.625000 0.500000
vt 0.625000 0.750000
vt 0.375000 0.750000
vt 0.125000 0.500000
vt 0.125000 0.750000
vt 0.875000 0.500000
vt 0.875000 0.750000
vt 0.375000 0.000000
vt 0.625000 0.000000
vt 0.625000 0.250000
vt 0.375000 0.250000
vt 0.375000 0.500000
vt 0.625000 0.500000
vt 0.625000 0.750000
vt 0.375000 0.750000
vt 0.125000 0.500000
vt 0.125000 0.750000
vt 0.875000 0.500000
vt 0.875000 0.750000
vt 0.375000 0.000000
vt 0.625000 0.000000
vt 0.625000 0.250000
vt 0.375000 0.250000
vt 0.375000 0.500000
vt 0.625000 0.500000
vt 0.625000 0.750000
vt 0.375000 0.750000
vt 0.625000 1.000000
vt 0.375000 1.000000
vt 0.125000 0.500000
vt 0.125000 0.750000
vt 0.875000 0.500000
vt 0.875000 0.750000
vt 0.375000 0.000000
vt 0.625000 0.000000
vt 0.625000 0.250000
vt 0.375000 0.250000
vt 0.625000 0.500000
vt 0.375000 0.500000
vt 0.625000 0.750000
vt 0.375000 0.750000
vt 0.875000 0.500000
vt 0.875000 0.750000
vt 0.375000 0.000000
vt 0.625000 0.000000
vt 0.625000 0.250000
vt 0.375000 0.250000
vt 0.375000 0.500000
vt 0.625000 0.500000
vt 0.625000 0.750000
vt 0.375000 0.750000
vt 0.125000 0.500000
vt 0.125000 0.750000
vt 0.875000 0.500000
vt 0.875000 0.750000
vt 0.375000 0.000000
vt 0.625000 0.000000
vt 0.625000 0.250000
vt 0.375000 0.250000
vt 0.375000 0.500000
vt 0.625000 0.500000
vt 0.625000 0.750000
vt 0.375000 0.750000
vt 0.125000 0.500000
vt 0.125000 0.750000
vt 0.875000 0.500000
vt 0.875000 0.750000
vt 0.375000 0.000000
vt 0.625000 0.000000
vt 0.625000 0.250000
vt 0.375000 0.250000
vt 0.375000 0.500000
vt 0.625000 0.500000
vt 0.625000 0.750000
vt 0.375000 0.750000
vt 0.625000 1.000000
vt 0.375000 1.000000
vt 0.125000 0.500000
vt 0.125000 0.750000
vt 0.875000 0.500000
vt 0.875000 0.750000
vt 0.375000 0.000000
vt 0.625000 0.000000
vt 0.625000 0.250000
vt 0.375000 0.250000
vt 0.625000 0.500000
vt 0.375000 0.500000
vt 0.625000 0.750000
vt 0.375000 0.750000
vt 0.625000 1.000000
vt 0.375000 1.000000
vt 0.375000 0.000000
vt 0.625000 0.000000
vt 0.625000 0.250000
vt 0.375000 0.250000
vt 0.625000 0.500000
vt 0.375000 0.500000
vt 0.625000 0.750000
vt 0.375000 0.750000
vt 0.625000 1.000000
vt 0.375000 1.000000
vt 0.375000 0.000000
vt 0.625000 0.000000
vt 0.625000 0.250000
vt 0.375000 0.250000
vt 0.625000 0.500000
vt 0.375000 0.500000
vt 0.375000 0.750000
vt 0.625000 0.750000
vt 0.625000 1.000000
vt 0.375000 1.000000
vt 0.125000 0.500000
vt 0.125000 0.750000
vt 0.375000 0.250000
vt 0.625000 0.250000
vt 0.625000 0.500000
vt 0.375000 0.500000
vt 0.375000 0.750000
vt 0.625000 0.750000
vt 0.625000 1.000000
vt 0.375000 1.000000
vt 0.125000 0.500000
vt 0.125000 0.750000
vt 0.875000 0.500000
vt 0.875000 0.750000
vt 0.375000 0.250000
vt 0.625000 0.250000
vt 0.625000 0.500000
vt 0.375000 0.500000
vt 0.125000 0.500000
vt 0.375000 0.750000
vt 0.125000 0.750000
vt 0.875000 0.500000
vt 0.875000 0.750000
vt 0.625000 0.750000
vt 0.375000 0.250000
vt 0.625000 0.250000
vt 0.625000 0.500000
vt 0.375000 0.500000
vt 0.625000 0.750000
vt 0.375000 0.750000
vt 0.625000 1.000000
vt 0.375000 1.000000
vt 0.125000 0.500000
vt 0.125000 0.750000
vt 0.375000 0.000000
vt 0.625000 0.000000
vt 0.625000 0.250000
vt 0.375000 0.250000
vt 0.625000 0.500000
vt 0.375000 0.500000
vt 0.625000 0.750000
vt 0.375000 0.750000
vt 0.625000 1.000000
vt 0.375000 1.000000
vt 0.375000 0.000000
vt 0.625000 0.000000
vt 0.625000 0.250000
vt 0.375000 0.250000
vt 0.625000 0.500000
vt 0.375000 0.500000
vt 0.625000 0.750000
vt 0.375000 0.750000
vt 0.625000 1.000000
vt 0.375000 1.000000
vt 0.375000 0.250000
vt 0.625000 0.250000
vt 0.625000 0.500000
vt 0.375000 0.500000
vt 0.000000 0.000000
vt 0.000000 0.000000
vt 0.000000 0.000000
vt 0.000000 0.000000
vt 0.375000 0.750000
vt 0.625000 0.750000
vt 0.625000 1.000000
vt 0.375000 1.000000
vt 0.125000 0.500000
vt 0.125000 0.750000
vt 0.875000 0.500000
vt 0.875000 0.750000
vt 0.375000 0.750000
vt 0.625000 0.750000
vt 0.625000 1.000000
vt 0.375000 1.000000
vt 0.375000 0.000000
vt 0.625000 0.000000
vt 0.625000 0.250000
vt 0.375000 0.250000
vt 0.625000 0.500000
vt 0.375000 0.500000
vt 0.375000 0.750000
vt 0.625000 0.750000
vt 0.625000 1.000000
vt 0.375000 1.000000
vt 0.125000 0.500000
vt 0.125000 0.750000
vt 0.000000 0.000000
vt 0.000000 0.000000
vt 0.000000 0.000000
vt 0.000000 0.000000
vt 0.375000 0.250000
vt 0.625000 0.250000
vt 0.625000 0.500000
vt 0.375000 0.500000
vt 0.625000 0.750000
vt 0.375000 0.750000
vt 0.625000 1.000000
vt 0.375000 1.000000
vt 0.125000 0.500000
vt 0.125000 0.750000
vn 0.0000 0.0000 1.0000
vn 0.0000 -1.0000 -0.0000
vn 0.0000 1.0000 0.0000
vn -0.0000 0.0000 -1.0000
vn 1.0000 0.0000 -0.0000
vn -1.0000 0.0000 0.0000
usemtl None
s off
f 57/1/1 3/2/1 2/3/1 64/4/1
f 47/5/2 57/1/2 64/4/2 1/6/2
f 3/2/3 35/7/3 34/8/3 2/3/3
f 4/9/4 5/10/4 6/11/4 88/12/4
f 88/12/5 6/11/5 26/13/5 7/14/5
f 8/15/6 9/16/6 5/17/6 4/18/6
f 88/19/2 7/14/2 8/15/2 4/20/2
f 26/13/3 6/21/3 5/22/3 9/16/3
f 7/23/5 26/24/5 11/25/5 131/26/5
f 130/27/6 10/28/6 9/29/6 8/30/6
f 11/25/3 26/31/3 9/32/3 10/28/3
f 131/33/5 11/34/5 13/35/5 135/36/5
f 133/37/6 12/38/6 10/39/6 130/40/6
f 13/35/3 11/41/3 10/42/3 12/38/3
f 135/43/5 13/44/5 67/45/5 66/46/5
f 66/46/1 67/45/1 15/47/1 14/48/1
f 14/48/6 15/47/6 12/49/6 133/50/6
f 135/51/2 66/46/2 14/48/2 133/52/2
f 67/45/3 13/53/3 12/54/3 15/47/3
f 62/55/1 20/56/1 19/57/1 67/58/1
f 67/58/6 19/57/6 16/59/6 13/60/6
f 17/61/2 62/55/2 67/58/2 13/62/2
f 20/56/3 18/63/3 16/64/3 19/57/3
f 13/65/6 16/66/6 22/67/6 11/68/6
f 23/69/2 17/70/2 13/65/2 11/71/2
f 18/72/3 21/73/3 22/74/3 16/66/3
f 11/75/6 22/76/6 27/77/6 26/78/6
f 29/79/2 23/80/2 11/75/2 26/81/2
f 21/82/3 28/83/3 27/84/3 22/76/3
f 6/85/4 24/86/4 25/87/4 84/88/4
f 26/89/6 27/90/6 24/91/6 6/92/6
f 84/93/2 29/94/2 26/89/2 6/95/2
f 28/96/3 25/97/3 24/98/3 27/90/3
f 84/99/4 25/100/4 37/101/4 78/102/4
f 78/103/2 30/104/2 29/105/2 84/106/2
f 31/107/3 37/108/3 25/109/3 28/110/3
f 30/111/2 32/112/2 23/113/2 29/114/2
f 33/115/3 31/116/3 28/117/3 21/118/3
f 32/119/2 1/120/2 17/121/2 23/122/2
f 34/123/3 33/124/3 21/125/3 18/126/3
f 64/127/1 2/128/1 20/129/1 62/130/1
f 1/131/2 64/127/2 62/130/2 17/132/2
f 2/128/3 34/133/3 18/134/3 20/129/3
f 45/135/2 47/136/2 1/137/2 32/138/2
f 35/139/3 46/140/3 33/141/3 34/142/3
f 40/143/2 45/144/2 32/145/2 30/146/2
f 46/147/3 36/148/3 31/149/3 33/150/3
f 78/151/4 37/152/4 38/153/4 80/154/4
f 80/155/2 40/156/2 30/157/2 78/158/2
f 36/159/3 38/160/3 37/161/3 31/162/3
f 80/163/4 38/164/4 39/165/4 75/166/4
f 75/166/5 39/165/5 41/167/5 42/168/5
f 75/169/2 42/168/2 40/170/2 80/171/2
f 41/167/3 39/172/3 38/173/3 36/174/3
f 42/175/5 41/176/5 44/177/5 43/178/5
f 42/179/2 43/178/2 45/180/2 40/181/2
f 44/177/3 41/182/3 36/183/3 46/184/3
f 43/185/5 44/186/5 49/187/5 48/188/5
f 43/189/2 48/188/2 47/190/2 45/191/2
f 49/187/3 44/192/3 46/193/3 35/194/3
f 48/195/5 49/196/5 51/197/5 50/198/5
f 50/198/1 51/197/1 3/199/1 57/200/1
f 48/201/2 50/198/2 57/200/2 47/202/2
f 51/197/3 49/203/3 35/204/3 3/199/3
f 56/205/4 57/206/4 50/207/4 52/208/4
f 52/208/5 50/207/5 55/209/5 54/210/5
f 54/210/1 55/209/1 53/211/1 60/212/1
f 60/212/6 53/211/6 57/213/6 56/214/6
f 55/209/3 50/215/3 57/216/3 53/211/3
f 63/217/4 64/218/4 57/219/4 56/220/4
f 60/221/1 53/222/1 59/223/1 58/224/1
f 56/225/2 60/221/2 58/224/2 63/226/2
f 53/222/3 57/227/3 64/228/3 59/223/3
f 61/229/4 62/230/4 64/231/4 63/232/4
f 58/233/1 59/234/1 65/235/1 70/236/1
f 63/237/2 58/233/2 70/236/2 61/238/2
f 59/234/3 64/239/3 62/240/3 65/235/3
f 66/241/4 67/242/4 62/243/4 61/244/4
f 70/245/1 65/246/1 69/247/1 68/248/1
f 68/248/6 69/247/6 67/249/6 66/250/6
f 61/251/2 70/245/2 68/248/2 66/252/2
f 65/246/3 62/253/3 67/254/3 69/247/3
f 71/255/4 76/256/4 73/257/4 72/258/4
f 72/258/5 73/257/5 75/259/5 74/260/5
f 74/260/1 75/259/1 80/261/1 79/262/1
f 75/259/3 73/263/3 76/264/3 80/261/3
f 82/265/4 83/266/4 76/267/4 71/268/4
f 79/269/1 80/270/1 78/271/1 77/272/1
f 71/273/2 79/269/2 77/272/2 82/274/2
f 80/270/3 76/275/3 83/276/3 78/271/3
f 81/277/4 87/278/4 83/279/4 82/280/4
f 77/281/1 78/282/1 84/283/1 89/284/1
f 82/285/2 77/281/2 89/284/2 81/286/2
f 78/282/3 83/287/3 87/288/3 84/283/3
f 85/289/4 86/290/4 87/291/4 81/292/4
f 89/293/1 84/294/1 6/295/1 88/296/1
f 88/296/6 6/295/6 86/297/6 85/298/6
f 81/299/2 89/293/2 88/296/2 85/300/2
f 84/294/3 87/301/3 86/302/3 6/295/3
f 91/303/4 71/304/4 72/305/4 93/306/4
f 93/306/5 72/305/5 74/307/5 95/308/5
f 95/308/1 74/307/1 79/309/1 94/310/1
f 94/310/6 79/309/6 71/311/6 91/312/6
f 90/313/4 91/314/4 93/315/4 92/316/4
f 92/316/5 93/315/5 95/317/5 101/318/5
f 101/318/1 95/317/1 94/319/1 99/320/1
f 99/320/6 94/319/6 91/321/6 90/322/6
f 96/323/4 90/324/4 92/325/4 97/326/4
f 97/326/5 92/325/5 101/327/5 100/328/5
f 98/329/6 99/330/6 90/331/6 96/332/6
f 97/333/2 100/328/2 98/329/2 96/334/2
f 102/335/5 111/336/5 123/337/5 104/338/5
f 122/339/6 103/340/6 110/341/6 109/342/6
f 102/343/2 104/338/2 122/339/2 109/344/2
f 123/337/3 111/345/3 110/346/3 103/340/3
f 107/347/5 108/348/5 111/349/5 102/350/5
f 107/351/2 102/350/2 109/352/2 105/353/2
f 111/349/3 108/354/3 106/355/3 110/356/3
f 112/357/5 115/358/5 117/359/5 114/360/5
f 114/360/1 117/359/1 116/361/1 113/362/1
f 113/362/6 116/361/6 125/363/6 124/364/6
f 112/365/2 114/360/2 113/362/2 124/366/2
f 125/367/4 119/368/4 120/369/4 115/370/4
f 115/370/5 120/369/5 118/371/5 117/372/5
f 117/372/1 118/371/1 121/373/1 116/374/1
f 116/374/6 121/373/6 119/375/6 125/376/6
f 119/377/4 56/378/4 52/379/4 120/380/4
f 120/380/5 52/379/5 54/381/5 118/382/5
f 118/382/1 54/381/1 60/383/1 121/384/1
f 121/384/6 60/383/6 56/385/6 119/386/6
f 104/387/5 123/388/5 115/389/5 112/390/5
f 105/391/2 98/392/2 100/393/2 107/394/2
f 124/395/6 125/396/6 103/397/6 122/398/6
f 104/399/2 112/390/2 124/395/2 122/400/2
f 115/389/3 123/401/3 103/402/3 125/396/3
f 105/403/6 106/404/6 99/405/6 98/406/6
f 126/407/4 8/408/4 7/409/4 127/410/4
f 127/410/5 7/409/5 131/411/5 129/412/5
f 128/413/6 130/414/6 8/415/6 126/416/6
f 127/417/2 129/412/2 128/413/2 126/418/2
f 101/419/5 108/420/5 107/394/5 100/393/5
f 108/420/3 101/419/3 99/421/3 106/422/3
f 129/423/5 131/424/5 135/425/5 134/426/5
f 134/426/1 135/425/1 133/427/1 132/428/1
f 132/428/6 133/427/6 130/429/6 128/430/6
f 129/431/2 134/426/2 132/428/2 128/432/2
